<?xml version="1.0" encoding="UTF-8"?><svg id="Layer_2" xmlns="http://www.w3.org/2000/svg" viewBox="0 0 259.43 259.43"><defs><style>.cls-1{fill:#fff;}</style></defs><g id="Layer_1-2"><path class="cls-1" d="m131.72,2.02c69.51,1.07,125.72,57.94,125.72,127.7s-57.29,127.72-127.72,127.72S3.09,201.22,2.02,131.72h10.11c1.07,63.93,53.41,115.61,117.6,115.61s117.61-52.76,117.61-117.61S195.65,13.19,131.72,12.12V2.02m-2-2.02v14.1c63.75,0,115.61,51.86,115.61,115.61s-51.86,115.61-115.61,115.61S14.1,193.47,14.1,129.72H0c0,71.53,58.19,129.72,129.72,129.72s129.72-58.19,129.72-129.72S201.24,0,129.72,0h0Z"/></g></svg>