<?xml version="1.0" encoding="UTF-8"?><svg id="Layer_2" xmlns="http://www.w3.org/2000/svg" viewBox="0 0 1340.26 670.13"><defs><style>.cls-1{fill:#fff;}</style></defs><g id="Layer_1-2"><path class="cls-1" d="m670.13,2c90.2,0,177.69,17.67,260.07,52.51,79.56,33.65,151.01,81.83,212.37,143.18,61.36,61.36,109.53,132.81,143.18,212.37,34.58,81.76,52.25,168.58,52.5,258.07h-19.58s10.34-13.53,10.34-13.53l.43-.56-.02-.7c-2.06-83.08-19.42-163.8-51.62-239.91-33.22-78.53-80.77-149.06-141.34-209.63-60.57-60.57-131.1-108.12-209.63-141.34-81.3-34.39-167.67-51.83-256.71-51.83s-175.41,17.44-256.71,51.83c-78.53,33.22-149.06,80.77-209.63,141.34-60.57,60.57-108.12,131.1-141.34,209.63-34.13,80.7-51.56,166.38-51.82,254.71H2c.26-89.49,17.92-176.3,52.5-258.07,33.65-79.56,81.82-151.01,143.18-212.37,61.36-61.36,132.81-109.53,212.37-143.18C492.43,19.67,579.93,2,670.13,2m0-2c-90.46,0-178.23,17.72-260.85,52.66-79.8,33.75-151.46,82.07-213.01,143.61-61.54,61.54-109.86,133.21-143.61,213.01C17.72,491.9,0,579.66,0,670.13h12.62c0-88.77,17.38-174.87,51.67-255.93,33.12-78.29,80.53-148.61,140.91-209,60.39-60.39,130.7-107.8,209-140.91,81.06-34.28,167.16-51.67,255.93-51.67s174.87,17.38,255.93,51.67c78.29,33.12,148.61,80.53,209,140.91,60.39,60.39,107.8,130.7,140.91,209,32.12,75.95,49.41,156.33,51.46,239.18l-12.8,16.75h13.01s12.62,0,12.62,0c0-90.46-17.72-178.23-52.66-260.85-33.75-79.8-82.07-151.46-143.61-213.01-61.54-61.54-133.21-109.86-213.01-143.61C848.35,17.72,760.59,0,670.13,0h0Z"/></g></svg>